<svg xmlns="http://www.w3.org/2000/svg" width="800" height="600"><rect width="800" height="600" x="0" y="0" fill="#ffffff" id="background"/><g id="viz"><g transform="translate(0,0)"><g transform="translate(77,50)"><g class="bars"><rect id="undefined - Comida" x="0" y="343.6938646426313" height="59.57147375079064" width="115.02181818181819" fill="#c71e1d"/><rect id="undefined - Deporte" x="0" y="263.0407969639469" height="59.57147375079064" width="116.24545454545455" fill="#c71e1d"/><rect id="undefined - Estudio" x="0" y="101.73466160657813" height="59.57147375079064" width="302.23818181818183" fill="#c71e1d"/><rect id="undefined - Sueño" x="0" y="21.08159392789375" height="59.57147375079064" width="666.8818181818182" fill="#c71e1d"/><rect id="undefined - Trabajo" x="0" y="182.3877292852625" height="59.57147375079064" width="244.72727272727275" fill="#c71e1d"/><rect id="undefined - Transporte" x="0" y="424.34693232131565" height="59.57147375079064" width="89.32545454545455" fill="#c71e1d"/></g><g id="xAxis" transform="translate(0,505)" fill="none" font-size="10" font-family="sans-serif" text-anchor="middle"><path class="domain" stroke="currentColor" d="M0,6V0H673V6"/><g class="tick" opacity="1" transform="translate(0,0)"><line stroke="currentColor" y2="6"/><text fill="currentColor" y="9" dy="0.71em">0</text></g><g class="tick" opacity="1" transform="translate(61.18181818181819,0)"><line stroke="currentColor" y2="6"/><text fill="currentColor" y="9" dy="0.71em">5</text></g><g class="tick" opacity="1" transform="translate(122.36363636363637,0)"><line stroke="currentColor" y2="6"/><text fill="currentColor" y="9" dy="0.71em">10</text></g><g class="tick" opacity="1" transform="translate(183.54545454545453,0)"><line stroke="currentColor" y2="6"/><text fill="currentColor" y="9" dy="0.71em">15</text></g><g class="tick" opacity="1" transform="translate(244.72727272727275,0)"><line stroke="currentColor" y2="6"/><text fill="currentColor" y="9" dy="0.71em">20</text></g><g class="tick" opacity="1" transform="translate(305.9090909090909,0)"><line stroke="currentColor" y2="6"/><text fill="currentColor" y="9" dy="0.71em">25</text></g><g class="tick" opacity="1" transform="translate(367.09090909090907,0)"><line stroke="currentColor" y2="6"/><text fill="currentColor" y="9" dy="0.71em">30</text></g><g class="tick" opacity="1" transform="translate(428.27272727272725,0)"><line stroke="currentColor" y2="6"/><text fill="currentColor" y="9" dy="0.71em">35</text></g><g class="tick" opacity="1" transform="translate(489.4545454545455,0)"><line stroke="currentColor" y2="6"/><text fill="currentColor" y="9" dy="0.71em">40</text></g><g class="tick" opacity="1" transform="translate(550.6363636363636,0)"><line stroke="currentColor" y2="6"/><text fill="currentColor" y="9" dy="0.71em">45</text></g><g class="tick" opacity="1" transform="translate(611.8181818181818,0)"><line stroke="currentColor" y2="6"/><text fill="currentColor" y="9" dy="0.71em">50</text></g><g class="tick" opacity="1" transform="translate(673,0)"><line stroke="currentColor" y2="6"/><text fill="currentColor" y="9" dy="0.71em">55</text></g><text font-family="Arial, sans-serif" font-size="10" x="673" dy="-5" fill="black" font-weight="bold" text-anchor="end">SUM de Duracion horas [sum]</text></g><g id="yAxis" transform="translate(0,0)" fill="none" font-size="10" font-family="sans-serif" text-anchor="end"><path class="domain" stroke="currentColor" d="M0,0V505"/><g class="tick" opacity="1" transform="translate(0,50.867330803289065)"><line stroke="currentColor" x2="-6"/><text fill="currentColor" x="-9" dy="0.32em">Sueño</text></g><g class="tick" opacity="1" transform="translate(0,131.52039848197344)"><line stroke="currentColor" x2="-6"/><text fill="currentColor" x="-9" dy="0.32em">Estudio</text></g><g class="tick" opacity="1" transform="translate(0,212.17346616065782)"><line stroke="currentColor" x2="-6"/><text fill="currentColor" x="-9" dy="0.32em">Trabajo</text></g><g class="tick" opacity="1" transform="translate(0,292.82653383934223)"><line stroke="currentColor" x2="-6"/><text fill="currentColor" x="-9" dy="0.32em">Deporte</text></g><g class="tick" opacity="1" transform="translate(0,373.47960151802664)"><line stroke="currentColor" x2="-6"/><text fill="currentColor" x="-9" dy="0.32em">Comida</text></g><g class="tick" opacity="1" transform="translate(0,454.132669196711)"><line stroke="currentColor" x2="-6"/><text fill="currentColor" x="-9" dy="0.32em">Transporte</text></g><text font-family="Arial, sans-serif" font-size="10" x="4" fill="black" font-weight="bold" text-anchor="start" dominant-baseline="hanging">Categoria</text></g></g><text y="4" x="4" style="font-family: Arial, sans-serif; font-size: 12px; fill: black; font-weight: bold; dominant-baseline: hanging;"/></g></g></svg>
