<svg xmlns="http://www.w3.org/2000/svg" width="805" height="600"><rect width="805" height="600" x="0" y="0" fill="#ffffff" id="background"/><g id="viz"><g transform="translate(0,0)"><g transform="translate(50,30)"><g class="bars"><rect id="undefined - Sueño" x="0" y="21.15384615384619" height="66.98717948717949" width="738.2272727272727" fill="#d62728"/><rect id="undefined - Estudio" x="0" y="109.29487179487182" height="66.98717948717949" width="334.16636363636366" fill="#2ca02c"/><rect id="undefined - Trabajo" x="0" y="197.43589743589746" height="66.98717948717949" width="270.90909090909093" fill="#9467bd"/><rect id="undefined - Deporte" x="0" y="285.5769230769231" height="66.98717948717949" width="128.6818181818182" fill="#ff7f0e"/><rect id="undefined - Comida" x="0" y="373.71794871794873" height="66.98717948717949" width="127.59818181818181" fill="#1f77b4"/><rect id="undefined - Transporte" x="0" y="461.85897435897436" height="66.98717948717949" width="94.81818181818181" fill="#8c564b"/></g><g id="xAxis" transform="translate(0,550)" fill="none" font-size="10" font-family="sans-serif" text-anchor="middle"><path class="domain" stroke="currentColor" d="M0,6V0H745V6"/><g class="tick" opacity="1" transform="translate(0,0)"><line stroke="currentColor" y2="6"/><text fill="currentColor" y="9" dy="0.71em">0</text></g><g class="tick" opacity="1" transform="translate(67.72727272727273,0)"><line stroke="currentColor" y2="6"/><text fill="currentColor" y="9" dy="0.71em">5</text></g><g class="tick" opacity="1" transform="translate(135.45454545454547,0)"><line stroke="currentColor" y2="6"/><text fill="currentColor" y="9" dy="0.71em">10</text></g><g class="tick" opacity="1" transform="translate(203.18181818181816,0)"><line stroke="currentColor" y2="6"/><text fill="currentColor" y="9" dy="0.71em">15</text></g><g class="tick" opacity="1" transform="translate(270.90909090909093,0)"><line stroke="currentColor" y2="6"/><text fill="currentColor" y="9" dy="0.71em">20</text></g><g class="tick" opacity="1" transform="translate(338.6363636363636,0)"><line stroke="currentColor" y2="6"/><text fill="currentColor" y="9" dy="0.71em">25</text></g><g class="tick" opacity="1" transform="translate(406.3636363636363,0)"><line stroke="currentColor" y2="6"/><text fill="currentColor" y="9" dy="0.71em">30</text></g><g class="tick" opacity="1" transform="translate(474.09090909090907,0)"><line stroke="currentColor" y2="6"/><text fill="currentColor" y="9" dy="0.71em">35</text></g><g class="tick" opacity="1" transform="translate(541.8181818181819,0)"><line stroke="currentColor" y2="6"/><text fill="currentColor" y="9" dy="0.71em">40</text></g><g class="tick" opacity="1" transform="translate(609.5454545454546,0)"><line stroke="currentColor" y2="6"/><text fill="currentColor" y="9" dy="0.71em">45</text></g><g class="tick" opacity="1" transform="translate(677.2727272727273,0)"><line stroke="currentColor" y2="6"/><text fill="currentColor" y="9" dy="0.71em">50</text></g><g class="tick" opacity="1" transform="translate(745,0)"><line stroke="currentColor" y2="6"/><text fill="currentColor" y="9" dy="0.71em">55</text></g><text font-family="Arial, sans-serif" font-size="10" x="745" dy="-5" fill="black" font-weight="bold" text-anchor="end">Horas [sum]</text></g><g id="yAxis" transform="translate(0,0)" fill="none" font-size="10" font-family="sans-serif" text-anchor="end"><path class="domain" stroke="currentColor" d="M0,0V550"/><g class="tick" opacity="1" transform="translate(0,54.64743589743593)"><line stroke="currentColor" x2="-6"/><text fill="currentColor" x="-9" dy="0.32em">Sueño</text></g><g class="tick" opacity="1" transform="translate(0,142.78846153846158)"><line stroke="currentColor" x2="-6"/><text fill="currentColor" x="-9" dy="0.32em">Estudio</text></g><g class="tick" opacity="1" transform="translate(0,230.9294871794872)"><line stroke="currentColor" x2="-6"/><text fill="currentColor" x="-9" dy="0.32em">Trabajo</text></g><g class="tick" opacity="1" transform="translate(0,319.0705128205128)"><line stroke="currentColor" x2="-6"/><text fill="currentColor" x="-9" dy="0.32em">Deporte</text></g><g class="tick" opacity="1" transform="translate(0,407.21153846153845)"><line stroke="currentColor" x2="-6"/><text fill="currentColor" x="-9" dy="0.32em">Comida</text></g><g class="tick" opacity="1" transform="translate(0,495.3525641025641)"><line stroke="currentColor" x2="-6"/><text fill="currentColor" x="-9" dy="0.32em">Transporte</text></g><text font-family="Arial, sans-serif" font-size="10" x="4" fill="black" font-weight="bold" text-anchor="start" dominant-baseline="hanging">Categoria</text></g></g><text y="4" x="4" style="font-family: Arial, sans-serif; font-size: 12px; fill: black; font-weight: bold; dominant-baseline: hanging;"/></g></g></svg>