<svg xmlns="http://www.w3.org/2000/svg" width="805" height="600"><rect width="805" height="600" x="0" y="0" fill="#ffffff" id="background"/><g id="viz"><g transform="translate(0,0)"><g transform="translate(70,40)"><g class="bars"><rect id="undefined - Sueño" x="0" y="21.1070110701107" height="62.04182041820418" width="658.9545454545455" fill="#d62728"/><rect id="undefined - Estudio" x="0" y="104.25584255842558" height="62.04182041820418" width="298.2827272727273" fill="#2ca02c"/><rect id="undefined - Trabajo" x="0" y="187.40467404674047" height="62.04182041820418" width="241.8181818181818" fill="#9467bd"/><rect id="undefined - Deporte" x="0" y="270.55350553505536" height="62.04182041820418" width="114.86363636363636" fill="#ff7f0e"/><rect id="undefined - Comida" x="0" y="353.7023370233702" height="62.04182041820418" width="113.89636363636363" fill="#1f77b4"/><rect id="undefined - Transporte" x="0" y="436.85116851168516" height="62.04182041820418" width="84.63636363636363" fill="#8c564b"/></g><g id="xAxis" transform="translate(0,520)" fill="none" font-size="10" font-family="sans-serif" text-anchor="middle"><path class="domain" stroke="currentColor" d="M0,6V0H665V6"/><g class="tick" opacity="1" transform="translate(0,0)"><line stroke="currentColor" y2="6"/><text fill="currentColor" y="9" dy="0.71em">0</text></g><g class="tick" opacity="1" transform="translate(60.45454545454545,0)"><line stroke="currentColor" y2="6"/><text fill="currentColor" y="9" dy="0.71em">5</text></g><g class="tick" opacity="1" transform="translate(120.9090909090909,0)"><line stroke="currentColor" y2="6"/><text fill="currentColor" y="9" dy="0.71em">10</text></g><g class="tick" opacity="1" transform="translate(181.36363636363635,0)"><line stroke="currentColor" y2="6"/><text fill="currentColor" y="9" dy="0.71em">15</text></g><g class="tick" opacity="1" transform="translate(241.8181818181818,0)"><line stroke="currentColor" y2="6"/><text fill="currentColor" y="9" dy="0.71em">20</text></g><g class="tick" opacity="1" transform="translate(302.27272727272725,0)"><line stroke="currentColor" y2="6"/><text fill="currentColor" y="9" dy="0.71em">25</text></g><g class="tick" opacity="1" transform="translate(362.7272727272727,0)"><line stroke="currentColor" y2="6"/><text fill="currentColor" y="9" dy="0.71em">30</text></g><g class="tick" opacity="1" transform="translate(423.1818181818182,0)"><line stroke="currentColor" y2="6"/><text fill="currentColor" y="9" dy="0.71em">35</text></g><g class="tick" opacity="1" transform="translate(483.6363636363636,0)"><line stroke="currentColor" y2="6"/><text fill="currentColor" y="9" dy="0.71em">40</text></g><g class="tick" opacity="1" transform="translate(544.0909090909091,0)"><line stroke="currentColor" y2="6"/><text fill="currentColor" y="9" dy="0.71em">45</text></g><g class="tick" opacity="1" transform="translate(604.5454545454545,0)"><line stroke="currentColor" y2="6"/><text fill="currentColor" y="9" dy="0.71em">50</text></g><g class="tick" opacity="1" transform="translate(665,0)"><line stroke="currentColor" y2="6"/><text fill="currentColor" y="9" dy="0.71em">55</text></g><text font-family="Arial, sans-serif" font-size="10" x="665" dy="-5" fill="black" font-weight="bold" text-anchor="end">Horas [sum]</text></g><g id="yAxis" transform="translate(0,0)" fill="none" font-size="10" font-family="sans-serif" text-anchor="end"><path class="domain" stroke="currentColor" d="M0,0V520"/><g class="tick" opacity="1" transform="translate(0,52.12792127921279)"><line stroke="currentColor" x2="-6"/><text fill="currentColor" x="-9" dy="0.32em">Sueño</text></g><g class="tick" opacity="1" transform="translate(0,135.27675276752768)"><line stroke="currentColor" x2="-6"/><text fill="currentColor" x="-9" dy="0.32em">Estudio</text></g><g class="tick" opacity="1" transform="translate(0,218.42558425584255)"><line stroke="currentColor" x2="-6"/><text fill="currentColor" x="-9" dy="0.32em">Trabajo</text></g><g class="tick" opacity="1" transform="translate(0,301.5744157441575)"><line stroke="currentColor" x2="-6"/><text fill="currentColor" x="-9" dy="0.32em">Deporte</text></g><g class="tick" opacity="1" transform="translate(0,384.7232472324723)"><line stroke="currentColor" x2="-6"/><text fill="currentColor" x="-9" dy="0.32em">Comida</text></g><g class="tick" opacity="1" transform="translate(0,467.8720787207873)"><line stroke="currentColor" x2="-6"/><text fill="currentColor" x="-9" dy="0.32em">Transporte</text></g><text font-family="Arial, sans-serif" font-size="10" x="4" fill="black" font-weight="bold" text-anchor="start" dominant-baseline="hanging">Categoria</text></g></g><text y="4" x="4" style="font-family: Arial, sans-serif; font-size: 12px; fill: black; font-weight: bold; dominant-baseline: hanging;"/></g></g></svg>