<svg xmlns="http://www.w3.org/2000/svg" width="800" height="600"><rect width="800" height="600" x="0" y="0" fill="#FFFFFF" id="background"/><g id="viz"><g transform="translate(0,0)"><g transform="translate(70,74)"><g class="bars"><rect id="undefined - Comida" x="0" y="332.3503267973856" height="56.773856209150324" width="113.03999999999999" fill="#1a6bc9"/><rect id="undefined - Deporte" x="0" y="254.52549019607844" height="56.773856209150324" width="114" fill="#1a6bc9"/><rect id="undefined - Estudio" x="0" y="98.87581699346408" height="56.773856209150324" width="296.04" fill="#1a6bc9"/><rect id="undefined - Sueño" x="0" y="21.0509803921569" height="56.773856209150324" width="654" fill="#1a6bc9"/><rect id="undefined - Trabajo" x="0" y="176.70065359477127" height="56.773856209150324" width="240" fill="#1a6bc9"/><rect id="undefined - Transporte" x="0" y="410.1751633986928" height="56.773856209150324" width="83.63999999999999" fill="#1a6bc9"/></g><g id="xAxis" transform="translate(0,488)" fill="none" font-size="10" font-family="sans-serif" text-anchor="middle"><path class="domain" stroke="currentColor" d="M0,6V0H660V6"/><g class="tick" opacity="1" transform="translate(0,0)"><line stroke="currentColor" y2="6"/><text fill="currentColor" y="9" dy="0.71em">0</text></g><g class="tick" opacity="1" transform="translate(60,0)"><line stroke="currentColor" y2="6"/><text fill="currentColor" y="9" dy="0.71em">5</text></g><g class="tick" opacity="1" transform="translate(120,0)"><line stroke="currentColor" y2="6"/><text fill="currentColor" y="9" dy="0.71em">10</text></g><g class="tick" opacity="1" transform="translate(180,0)"><line stroke="currentColor" y2="6"/><text fill="currentColor" y="9" dy="0.71em">15</text></g><g class="tick" opacity="1" transform="translate(240,0)"><line stroke="currentColor" y2="6"/><text fill="currentColor" y="9" dy="0.71em">20</text></g><g class="tick" opacity="1" transform="translate(300,0)"><line stroke="currentColor" y2="6"/><text fill="currentColor" y="9" dy="0.71em">25</text></g><g class="tick" opacity="1" transform="translate(360,0)"><line stroke="currentColor" y2="6"/><text fill="currentColor" y="9" dy="0.71em">30</text></g><g class="tick" opacity="1" transform="translate(420,0)"><line stroke="currentColor" y2="6"/><text fill="currentColor" y="9" dy="0.71em">35</text></g><g class="tick" opacity="1" transform="translate(480,0)"><line stroke="currentColor" y2="6"/><text fill="currentColor" y="9" dy="0.71em">40</text></g><g class="tick" opacity="1" transform="translate(540,0)"><line stroke="currentColor" y2="6"/><text fill="currentColor" y="9" dy="0.71em">45</text></g><g class="tick" opacity="1" transform="translate(600,0)"><line stroke="currentColor" y2="6"/><text fill="currentColor" y="9" dy="0.71em">50</text></g><g class="tick" opacity="1" transform="translate(660,0)"><line stroke="currentColor" y2="6"/><text fill="currentColor" y="9" dy="0.71em">55</text></g><text font-family="Arial, sans-serif" font-size="10" x="660" dy="-5" fill="black" font-weight="bold" text-anchor="end">Tiempo Horas [sum]</text></g><g id="yAxis" transform="translate(0,0)" fill="none" font-size="10" font-family="sans-serif" text-anchor="end"><path class="domain" stroke="currentColor" d="M0,0V488"/><g class="tick" opacity="1" transform="translate(0,49.437908496732064)"><line stroke="currentColor" x2="-6"/><text fill="currentColor" x="-9" dy="0.32em">Sueño</text></g><g class="tick" opacity="1" transform="translate(0,127.26274509803925)"><line stroke="currentColor" x2="-6"/><text fill="currentColor" x="-9" dy="0.32em">Estudio</text></g><g class="tick" opacity="1" transform="translate(0,205.08758169934643)"><line stroke="currentColor" x2="-6"/><text fill="currentColor" x="-9" dy="0.32em">Trabajo</text></g><g class="tick" opacity="1" transform="translate(0,282.9124183006536)"><line stroke="currentColor" x2="-6"/><text fill="currentColor" x="-9" dy="0.32em">Deporte</text></g><g class="tick" opacity="1" transform="translate(0,360.7372549019608)"><line stroke="currentColor" x2="-6"/><text fill="currentColor" x="-9" dy="0.32em">Comida</text></g><g class="tick" opacity="1" transform="translate(0,438.562091503268)"><line stroke="currentColor" x2="-6"/><text fill="currentColor" x="-9" dy="0.32em">Transporte</text></g><text font-family="Arial, sans-serif" font-size="10" x="4" fill="black" font-weight="bold" text-anchor="start" dominant-baseline="hanging">Categoria</text></g></g><text y="4" x="4" style="font-family: Arial, sans-serif; font-size: 12px; fill: black; font-weight: bold; dominant-baseline: hanging;"/></g></g></svg>
