<svg xmlns="http://www.w3.org/2000/svg" width="805" height="600"><rect width="805" height="600" x="0" y="0" fill="#FFFFFF" id="background"/><g id="viz"><g transform="translate(0,0)"><g transform="translate(80,50)"><g class="bars"><rect id="undefined - Comida" x="0" y="260.53639846743295" height="58.748403575989784" width="117.81818181818181" fill="#ff001f"/><rect id="undefined - Deporte" x="0" y="340.35759897828865" height="58.748403575989784" width="116.5909090909091" fill="#ff001f"/><rect id="undefined - Sueño" x="0" y="21.07279693486589" height="58.748403575989784" width="668.8636363636364" fill="#ff001f"/><rect id="undefined - Transporte" x="0" y="420.17879948914435" height="58.748403575989784" width="92.04545454545453" fill="#ff001f"/><rect id="undefined - Trabajo" x="0" y="180.71519795657727" height="58.748403575989784" width="245.45454545454547" fill="#ff001f"/><rect id="undefined - Estudio" x="0" y="100.89399744572158" height="58.748403575989784" width="303.1363636363636" fill="#ff001f"/></g><g id="xAxis" transform="translate(0,500)" fill="none" font-size="10" font-family="sans-serif" text-anchor="middle"><path class="domain" stroke="currentColor" d="M0,6V0H675V6"/><g class="tick" opacity="1" transform="translate(0,0)"><line stroke="currentColor" y2="6"/><text fill="currentColor" y="9" dy="0.71em">0</text></g><g class="tick" opacity="1" transform="translate(61.36363636363637,0)"><line stroke="currentColor" y2="6"/><text fill="currentColor" y="9" dy="0.71em">5</text></g><g class="tick" opacity="1" transform="translate(122.72727272727273,0)"><line stroke="currentColor" y2="6"/><text fill="currentColor" y="9" dy="0.71em">10</text></g><g class="tick" opacity="1" transform="translate(184.09090909090907,0)"><line stroke="currentColor" y2="6"/><text fill="currentColor" y="9" dy="0.71em">15</text></g><g class="tick" opacity="1" transform="translate(245.45454545454547,0)"><line stroke="currentColor" y2="6"/><text fill="currentColor" y="9" dy="0.71em">20</text></g><g class="tick" opacity="1" transform="translate(306.8181818181818,0)"><line stroke="currentColor" y2="6"/><text fill="currentColor" y="9" dy="0.71em">25</text></g><g class="tick" opacity="1" transform="translate(368.18181818181813,0)"><line stroke="currentColor" y2="6"/><text fill="currentColor" y="9" dy="0.71em">30</text></g><g class="tick" opacity="1" transform="translate(429.54545454545456,0)"><line stroke="currentColor" y2="6"/><text fill="currentColor" y="9" dy="0.71em">35</text></g><g class="tick" opacity="1" transform="translate(490.90909090909093,0)"><line stroke="currentColor" y2="6"/><text fill="currentColor" y="9" dy="0.71em">40</text></g><g class="tick" opacity="1" transform="translate(552.2727272727273,0)"><line stroke="currentColor" y2="6"/><text fill="currentColor" y="9" dy="0.71em">45</text></g><g class="tick" opacity="1" transform="translate(613.6363636363636,0)"><line stroke="currentColor" y2="6"/><text fill="currentColor" y="9" dy="0.71em">50</text></g><g class="tick" opacity="1" transform="translate(675,0)"><line stroke="currentColor" y2="6"/><text fill="currentColor" y="9" dy="0.71em">55</text></g><text font-family="Arial, sans-serif" font-size="10" x="675" dy="-5" fill="black" font-weight="bold" text-anchor="end">Duracion (horas) [sum]</text></g><g id="yAxis" transform="translate(0,0)" fill="none" font-size="10" font-family="sans-serif" text-anchor="end"><path class="domain" stroke="currentColor" d="M0,0V500"/><g class="tick" opacity="1" transform="translate(0,50.44699872286078)"><line stroke="currentColor" x2="-6"/><text fill="currentColor" x="-9" dy="0.32em">Sueño</text></g><g class="tick" opacity="1" transform="translate(0,130.26819923371647)"><line stroke="currentColor" x2="-6"/><text fill="currentColor" x="-9" dy="0.32em">Estudio</text></g><g class="tick" opacity="1" transform="translate(0,210.08939974457218)"><line stroke="currentColor" x2="-6"/><text fill="currentColor" x="-9" dy="0.32em">Trabajo</text></g><g class="tick" opacity="1" transform="translate(0,289.9106002554278)"><line stroke="currentColor" x2="-6"/><text fill="currentColor" x="-9" dy="0.32em">Comida</text></g><g class="tick" opacity="1" transform="translate(0,369.7318007662835)"><line stroke="currentColor" x2="-6"/><text fill="currentColor" x="-9" dy="0.32em">Deporte</text></g><g class="tick" opacity="1" transform="translate(0,449.55300127713923)"><line stroke="currentColor" x2="-6"/><text fill="currentColor" x="-9" dy="0.32em">Transporte</text></g><text font-family="Arial, sans-serif" font-size="10" x="4" fill="black" font-weight="bold" text-anchor="start" dominant-baseline="hanging">Categoria</text></g></g><text y="4" x="4" style="font-family: Arial, sans-serif; font-size: 12px; fill: black; font-weight: bold; dominant-baseline: hanging;"/></g></g></svg>